<svg xmlns="http://www.w3.org/2000/svg" width="512" height="512" viewBox="0 0 512 512">
  <defs>
    <linearGradient id="bg" x1="0" y1="0" x2="1" y2="1">
      <stop offset="0" stop-color="#ffd6e8"/>
      <stop offset="1" stop-color="#c9b6ff"/>
    </linearGradient>
  </defs>
  <rect width="512" height="512" rx="112" fill="url(#bg)"/>
  <!-- 퍼즐 조각 -->
  <path fill="#fff" d="M196 150c0-20 16-34 36-34s36 14 36 34c0 6-2 12-5 17 5-3 11-5 17-5 20 0 34 16 34 36s-14 36-34 36c-6 0-12-2-17-5 3 5 5 11 5 17 0 20-16 36-36 36s-36-16-36-36c0-6 2-12 5-17-5 3-11 5-17 5-20 0-34-16-34-36s14-36 34-36c6 0 12 2 17 5-3-5-5-11-5-17z" transform="translate(-6 26)"/>
  <path fill="#ff9ec4" d="M300 250c0-20 16-34 36-34s36 14 36 34c0 6-2 12-5 17 5-3 11-5 17-5 20 0 34 16 34 36s-14 36-34 36c-6 0-12-2-17-5 3 5 5 11 5 17 0 20-16 36-36 36s-36-16-36-36c0-6 2-12 5-17-5 3-11 5-17 5-20 0-34-16-34-36s14-36 34-36c6 0 12 2 17 5-3-5-5-11-5-17z" transform="translate(-40 6)"/>
</svg>
